<svg xmlns="http://www.w3.org/2000/svg" version="1.1" xmlns:xlink="http://www.w3.org/1999/xlink" xmlns:svgjs="http://svgjs.dev/svgjs" width="500" height="500"><svg xmlns="http://www.w3.org/2000/svg" xmlns:xlink="http://www.w3.org/1999/xlink" width="500" zoomAndPan="magnify" viewBox="0 0 375 374.999991" height="500" preserveAspectRatio="xMidYMid meet" version="1.0"><defs><clipPath id="SvgjsClipPath1005"><path d="M 124.433594 0 L 250.433594 0 L 250.433594 375 L 124.433594 375 Z M 124.433594 0 " clip-rule="nonzero"></path></clipPath></defs><path fill="#7480ff" d="M 246.265625 4.316406 L 141 201.882812 L 171.761719 192.902344 L 128.699219 371.121094 L 231.230469 164.132812 L 201.152344 171.949219 Z M 246.265625 4.316406 " fill-opacity="1" fill-rule="nonzero"></path><g clip-path="url(#95383a91dd)"><path fill="#ffffff" d="M 128.695312 374.996094 C 128.257812 374.996094 127.808594 374.917969 127.375 374.761719 C 125.519531 374.085938 124.46875 372.128906 124.933594 370.210938 L 166.425781 198.496094 L 142.085938 205.601562 C 140.589844 206.039062 138.980469 205.539062 137.996094 204.328125 C 137.011719 203.117188 136.851562 201.4375 137.582031 200.0625 L 242.847656 2.496094 C 243.777344 0.757812 245.859375 -0.0078125 247.691406 0.714844 C 249.523438 1.4375 250.519531 3.421875 250.007812 5.324219 L 206.625 166.523438 L 230.253906 160.382812 C 231.722656 160 233.277344 160.511719 234.234375 161.6875 C 235.191406 162.863281 235.375 164.492188 234.699219 165.851562 L 132.167969 372.839844 C 131.5 374.191406 130.132812 374.996094 128.695312 374.996094 Z M 171.761719 189.03125 C 172.742188 189.03125 173.703125 189.402344 174.433594 190.101562 C 175.433594 191.054688 175.851562 192.46875 175.527344 193.8125 L 140.59375 338.378906 L 223.992188 170.015625 L 202.128906 175.699219 C 200.792969 176.042969 199.375 175.65625 198.402344 174.675781 C 197.429688 173.695312 197.054688 172.273438 197.414062 170.941406 L 233.683594 36.171875 L 148.742188 195.589844 L 170.675781 189.183594 C 171.035156 189.082031 171.398438 189.03125 171.761719 189.03125 Z M 171.761719 189.03125 " fill-opacity="1" fill-rule="nonzero"></path></g></svg><style>@media (prefers-color-scheme: light) { :root { filter: none; } }
@media (prefers-color-scheme: dark) { :root { filter: none; } }
</style></svg>